<?xml version="1.0" encoding="UTF-8" standalone="no"?>
<svg
   xmlns:dc="http://purl.org/dc/elements/1.1/"
   xmlns:cc="http://creativecommons.org/ns#"
   xmlns:rdf="http://www.w3.org/1999/02/22-rdf-syntax-ns#"
   xmlns:svg="http://www.w3.org/2000/svg"
   xmlns="http://www.w3.org/2000/svg"
   version="1.1"
   id="svg4473"
   viewBox="0 0 120.05 35.000001"
   height="35"
   width="120.05">
  <defs
     id="defs4475">
    <clipPath
       id="clipPath4447"
       clipPathUnits="userSpaceOnUse">
      <path
         id="path4449"
         d="m 0,0 1024,0 0,1200 L 0,1200 0,0 Z" />
    </clipPath>
  </defs>
  <metadata
     id="metadata4478">
    <rdf:RDF>
      <cc:Work
         rdf:about="">
        <dc:format>image/svg+xml</dc:format>
        <dc:type
           rdf:resource="http://purl.org/dc/dcmitype/StillImage" />
        <dc:title></dc:title>
      </cc:Work>
    </rdf:RDF>
  </metadata>
  <g
     transform="translate(-242.83214,-83.4336)"
     id="layer1">
    <path
       d="m 346.03214,118.4336 c 1.4,0 2.1,-0.7 2.1,-2.15 l 0,-8.75 c 0,-1.2 -0.65,-1.9 -1.75,-1.9 l -3.25,0 c -1.1,0 -1.75,0.7 -1.75,1.9 l 0,4.8 -10.65,0 16.35,-20 c 0.85,-1 1.25,-1.8 1.25,-3.2 l 0,-2.9 c 0,-1.95 -0.95,-2.8 -2.75,-2.8 l -23.05,0 c -1.3,0 -2.1,0.7 -2.1,2.15 l 0,8.3 c 0,1.15 0.7,1.9 1.8,1.9 l 3.25,0 c 1.1,0 1.75,-0.75 1.75,-1.9 l 0,-4.35 10.1,0 -16.35,20 c -0.85,1 -1.25,1.8 -1.25,3.2 l 0,2.9 c 0,1.95 0.95,2.8 2.75,2.8 l 23.55,0 z m -38.25,0 c 0.7,0 1.2,-0.5 1.2,-1.2 l 0,-3.85 c 0,-0.7 -0.5,-1.2 -1.2,-1.2 l -2.8,0 0,-7.15 9.95,-15.35 1.6,0 c 0.7,0 1.2,-0.5 1.2,-1.2 l 0,-3.85 c 0,-0.7 -0.5,-1.2 -1.2,-1.2 l -11.65,0 c -0.75,0 -1.25,0.5 -1.25,1.2 l 0,3.6 c 0,0.7 0.5,1.2 1.25,1.2 l 2.65,0 -5.65,9.3 -5.6,-9.3 2.65,0 c 0.7,0 1.2,-0.5 1.2,-1.2 l 0,-3.6 c 0,-0.7 -0.5,-1.2 -1.2,-1.2 l -15.6,0 c -0.75,0 -1.25,0.5 -1.25,1.2 l 0,3.85 c 0,0.7 0.5,1.2 1.25,1.2 l 1.55,0 9.95,15.35 0,7.15 -2.75,0 c -0.7,0 -1.25,0.5 -1.25,1.2 l 0,3.85 c 0,0.7 0.55,1.2 1.25,1.2 l 15.7,0 z m -49.95,-1.2 0,-3.55 c 0,-0.7 -0.5,-1.2 -1.2,-1.2 l -2.75,0 5.6,-7.55 5.65,7.55 -2.65,0 c -0.75,0 -1.25,0.5 -1.25,1.2 l 0,3.55 c 0,0.7 0.5,1.2 1.25,1.2 l 16.3,0 c 0.65,0 1.2,-0.5 1.2,-1.2 l 0,-3.85 c 0,-0.7 -0.55,-1.2 -1.2,-1.2 l -1.8,0 -9.15,-11.5 8.75,-11 1.85,0 c 0.7,0 1.2,-0.5 1.2,-1.2 l 0,-3.85 c 0,-0.7 -0.5,-1.2 -1.2,-1.2 l -12.7,0 c -0.7,0 -1.15,0.5 -1.15,1.2 l 0,3.55 c 0,0.7 0.45,1.2 1.15,1.2 l 2.7,0 -5.1,6.95 -5.2,-6.95 2.7,0 c 0.7,0 1.25,-0.5 1.25,-1.2 l 0,-3.55 c 0,-0.7 -0.55,-1.2 -1.25,-1.2 l -16.35,0 c -0.75,0 -1.3,0.5 -1.3,1.2 l 0,3.85 c 0,0.7 0.55,1.2 1.3,1.2 l 1.75,0 8.7,10.9 -9.15,11.6 -1.7,0 c -0.75,0 -1.25,0.5 -1.25,1.2 l 0,3.85 c 0,0.7 0.5,1.2 1.25,1.2 l 12.55,0 c 0.7,0 1.2,-0.5 1.2,-1.2 m 102.55,1.2 c 1.8,0 2.5,-0.85 2.5,-2.5 l 0,-4.35 c 0,-1.65 -0.7,-2.5 -2.5,-2.5 l -3.9,0 c -1.8,0 -2.45,0.85 -2.45,2.5 l 0,4.35 c 0,1.65 0.65,2.5 2.45,2.5 l 3.9,0 z"
       style="fill:#000000;fill-opacity:1;fill-rule:nonzero;stroke:none"
       id="path4453" />
  </g>
</svg>
